<svg xmlns="http://www.w3.org/2000/svg" version="1.1" xmlns:xlink="http://www.w3.org/1999/xlink" xmlns:svgjs="http://svgjs.dev/svgjs" width="2000" height="545" viewBox="0 0 2000 545"><g transform="matrix(1,0,0,1,-1.2121208997547228,1.1401203391195622)"><svg viewBox="0 0 396 108" data-background-color="#ffffff" preserveAspectRatio="xMidYMid meet" height="545" width="2000" xmlns="http://www.w3.org/2000/svg" xmlns:xlink="http://www.w3.org/1999/xlink"><g id="tight-bounds" transform="matrix(1,0,0,1,0.24000006184860467,-0.22593210389891283)"><svg viewBox="0 0 395.52 108.4518642077978" height="108.4518642077978" width="395.52"><g><svg viewBox="0 0 566.9548290683338 155.4594157920564" height="108.4518642077978" width="395.52"><g transform="matrix(1,0,0,1,0,43.89438944714453)"><svg viewBox="0 0 395.52 67.67063689776734" height="67.67063689776734" width="395.52"><g id="textblocktransform"><svg viewBox="0 0 395.52 67.67063689776734" height="67.67063689776734" width="395.52" id="textblock"><g><svg viewBox="0 0 395.52 67.67063689776734" height="67.67063689776734" width="395.52"><g transform="matrix(1,0,0,1,0,0)"><svg width="395.52" viewBox="3.1500000953674316 -35.79999923706055 212.73001098632812 36.39999771118164" height="67.67063689776734" data-palette-color="#398378"><path d="M24.15-9.25Q24.15-4.2 21.08-1.83 18 0.55 13.7 0.55L13.7 0.55Q11 0.55 8.6-0.43 6.2-1.4 4.67-3.6 3.15-5.8 3.15-9.25L3.15-9.25 3.15-25.35Q3.15-30.5 5.98-33.15 8.8-35.8 13.75-35.8L13.75-35.8Q18.7-35.8 21.43-33 24.15-30.2 24.15-25.3L24.15-25.3 24.15-9.25ZM18.65-23.5Q18.65-25.6 18.3-26.95 17.95-28.3 16.85-29.08 15.75-29.85 13.65-29.85L13.65-29.85Q11.55-29.85 10.45-29.1 9.35-28.35 9-27.03 8.65-25.7 8.65-23.55L8.65-23.55 8.65-10.2Q8.65-7.8 9.88-6.43 11.1-5.05 13.65-5.05L13.65-5.05Q16-5.05 17.32-6.5 18.65-7.95 18.65-10.3L18.65-10.3 18.65-23.5ZM50.4 0L36.85-23.65 36.85 0 31.35 0 31.35-35 36.85-35 50.4-11.5 50.4-35 55.95-35 55.95 0 50.4 0ZM63.85 0L63.85-35 80.55-35 80.55-29.5 69.35-29.5 69.35-20.65 76.2-20.65 74.65-15.4 69.35-15.4 69.35-5 80.45-5 80.45 0 63.85 0ZM99.34 0L99.34-15.75Q99.34-17.75 98.22-18.98 97.09-20.2 95.19-20.2L95.19-20.2Q93.64-20.2 91.84-19.3L91.84-19.3 91.84 0 86.39 0 86.39-25.05 91.24-25.05 91.89-24.75Q93.99-25.45 96.24-25.45L96.24-25.45Q98.74-25.45 100.59-24.55L100.59-24.55Q102.59-23.65 103.72-21.85 104.84-20.05 104.84-17.3L104.84-17.3 104.84 0 99.34 0ZM126.09-0.3Q122.99 0.5 120.09 0.5L120.09 0.5Q117.39 0.5 115.59-0.1L115.59-0.1Q112.64-1.1 111.32-3.18 109.99-5.25 109.99-9L109.99-9 109.99-15.4Q109.99-20.35 112.59-22.93 115.19-25.5 119.29-25.5L119.29-25.5Q122.54-25.5 125.99-23.9L125.99-23.9 124.49-19.15Q122.09-20.1 120.19-20.1L120.19-20.1Q117.94-20.1 116.72-18.85 115.49-17.6 115.49-15.7L115.49-15.7 115.49-8.45Q115.49-6.55 116.84-5.75 118.19-4.95 120.29-4.95L120.29-4.95Q121.49-4.95 122.69-5.2 123.89-5.45 124.59-5.7L124.59-5.7 126.09-0.3ZM149.89-9.2Q149.89-5 147.59-2.25 145.29 0.5 140.64 0.5L140.64 0.5Q135.99 0.5 133.61-2.27 131.24-5.05 131.24-9.2L131.24-9.2 131.24-15.8Q131.24-20.55 133.66-23.08 136.09-25.6 140.64-25.6L140.64-25.6Q144.99-25.6 147.44-22.98 149.89-20.35 149.89-15.8L149.89-15.8 149.89-9.2ZM144.44-15.8Q144.44-18.45 143.34-19.25 142.24-20.05 140.64-20.05L140.64-20.05Q136.74-20.05 136.74-15.8L136.74-15.8 136.74-8.7Q136.74-6.7 137.84-5.8 138.94-4.9 140.64-4.9L140.64-4.9Q142.29-4.9 143.36-5.85 144.44-6.8 144.44-8.7L144.44-8.7 144.44-15.8ZM155.74-17.3Q155.74-22.55 159.99-24.5L159.99-24.5Q162.04-25.5 164.79-25.5L164.79-25.5Q167.14-25.5 168.74-24.9L168.74-24.9 168.74-35 174.19-35 174.19 0 171.44 0.25Q168.19 0.6 166.34 0.6L166.34 0.6Q164.49 0.6 162.86 0.25 161.24-0.1 159.64-0.9L159.64-0.9Q157.84-1.8 156.79-3.55 155.74-5.3 155.74-7.85L155.74-7.85 155.74-17.3ZM168.74-19.1Q166.94-19.95 165.39-19.95L165.39-19.95Q163.59-19.95 162.39-18.8 161.19-17.65 161.19-15.3L161.19-15.3 161.19-7.5Q161.19-6.2 162.59-5.35 163.99-4.5 166.14-4.5L166.14-4.5Q167.49-4.5 168.74-4.85L168.74-4.85 168.74-19.1ZM184.43-8.85L184.43-7.45Q184.43-6.05 185.21-5.28 185.98-4.5 187.48-4.5L187.48-4.5Q189.78-4.5 193.63-6.5L193.63-6.5 195.63-1.75Q193.83-0.6 191.53 0 189.23 0.6 186.93 0.6L186.93 0.6Q183.23 0.6 181.06-1.23 178.88-3.05 178.88-6.7L178.88-6.7 178.88-16.95Q178.88-21 181.41-23.25 183.93-25.5 188.08-25.5L188.08-25.5Q192.23-25.5 194.56-23.28 196.88-21.05 196.88-17.1L196.88-17.1 196.88-9.5 184.43-8.85ZM191.33-17Q191.33-18.5 190.38-19.3 189.43-20.1 188.03-20.1L188.03-20.1Q186.13-20.1 185.28-19.1 184.43-18.1 184.43-16.9L184.43-16.9 184.43-13.9 191.33-14.35 191.33-17ZM201.88 0L201.88-25.05 206.98-25.05 207.38-24.85Q209.43-25.55 211.23-25.55L211.23-25.55Q212.48-25.55 214.88-25.05L214.88-25.05 215.88-24.85 214.58-19.5Q213.18-20.2 211.83-20.2L211.83-20.2Q209.98-20.2 208.68-19.07 207.38-17.95 207.38-16.1L207.38-16.1 207.38 0 201.88 0Z" opacity="1" transform="matrix(1,0,0,1,0,0)" fill="#398378" class="undefined-text-0" data-fill-palette-color="primary" id="text-0"></path></svg></g></svg></g></svg></g></svg></g><g transform="matrix(1,0,0,1,411.4954132762773,0)"><svg viewBox="0 0 155.4594157920564 155.4594157920564" height="155.4594157920564" width="155.4594157920564"><g><svg></svg></g><g id="icon-0"><svg viewBox="0 0 155.4594157920564 155.4594157920564" height="155.4594157920564" width="155.4594157920564"><g><rect width="141.35291324796242" height="141.35291324796242" x="7.053251272046992" y="7.053251272046992" fill="#398378" data-fill-palette-color="accent"></rect><rect width="141.35291324796242" height="141.35291324796242" x="-1.0658141036401503e-14" y="-1.0658141036401503e-14" fill="#398378" opacity="0.5" data-fill-palette-color="accent"></rect></g><g transform="matrix(1,0,0,1,20.15214649156286,20.606872703366676)"><svg viewBox="0 0 115.15512280893068 114.24567038532305" height="114.24567038532305" width="115.15512280893068"><g><svg xmlns="http://www.w3.org/2000/svg" xmlns:xlink="http://www.w3.org/1999/xlink" version="1.1" x="0" y="0" viewBox="5.00021505355835 5.024001121520996 89.99978637695312 89.28900146484375" enable-background="new 0 0 100 100" xml:space="preserve" height="114.24567038532305" width="115.15512280893068" class="icon-s-0" data-fill-palette-color="background" id="s-0"><polygon points="88.844,90.747 88.705,88.938 88.831,90.659 " fill="#ffffff" data-fill-palette-color="background"></polygon><polygon points="88.856,90.816 88.844,90.747 88.856,90.816 " fill="#ffffff" data-fill-palette-color="background"></polygon><polygon points="89.014,92.783 88.856,90.816 88.856,90.816 " fill="#ffffff" data-fill-palette-color="background"></polygon><polygon points="88.673,88.396 88.673,88.396 88.705,88.938 " fill="#ffffff" data-fill-palette-color="background"></polygon><path d="M94.818 92.051l-0.158-2.036-1.229-15.842-0.057-0.7-0.523-0.529-34.388-34.37c6.184-11.271 6.146-22.455-0.183-28.784-3.108-3.114-7.477-4.766-12.621-4.766-4.772 0-9.979 1.418-15.148 4.072-2.383-1.979-5.415-3.064-8.649-3.064-4.072 0-8.132 1.721-11.146 4.741-2.849 2.85-4.526 6.556-4.715 10.408-0.183 3.556 0.901 6.84 3.039 9.399-5.604 10.899-5.384 21.692 0.7 27.756 3.114 3.121 7.477 4.772 12.621 4.772 5.245 0 11.183-1.777 16.857-4.999l5.598 5.598 0.511 0.498 0.7 0.063 3.789 0.328 0.517 4.047 0.189 1.462 1.476 0.227 3.738 0.555 0.87 4.161 0.284 1.311 1.299 0.214 3.757 0.63 0.29 3.291 0.164 1.639 1.639 0.126 3.196 0.246 0.668 3.776L68 86.881l0.429 0.441 5.037 5.03 0.517 0.523 0.731 0.044 18.023 1.242L95 94.313 94.818 92.051zM30.87 30.927c-2.584 2.604-6.789 2.604-9.38 0-2.604-2.584-2.604-6.796 0-9.368 2.591-2.604 6.796-2.604 9.38 0C33.474 24.131 33.474 28.343 30.87 30.927zM91.928 92.848L48.052 48.972c0.347-0.353 0.662-0.712 1.002-1.065l43 43 0.157 1.967L91.928 92.848zM49.789 47.166c0.34-0.365 0.687-0.712 1.009-1.078l41.738 41.732 0.032 0.542 0.126 1.721L49.789 47.166z" fill="#ffffff" data-fill-palette-color="background"></path></svg></g></svg></g></svg></g></svg></g></svg></g><defs></defs></svg><rect width="395.52" height="108.4518642077978" fill="none" stroke="none" visibility="hidden"></rect></g></svg></g></svg>